<svg xmlns="http://www.w3.org/2000/svg" viewBox="0 0 395.52 527.03"><defs><style>.cls-1{fill:#93bfbf;}.cls-2{fill:#04738c;}.cls-3{fill:#dc9698;}.cls-4{fill:#d98179;}.cls-5{fill:#e0ad9e;}.cls-6{fill:#f2c9c9;}</style></defs><title>ella_simplified</title><g id="Layer_2" data-name="Layer 2"><g id="Layer_1-2" data-name="Layer 1"><path class="cls-1" d="M334.19,0C331,19.11,270.75,41.1,270.75,41.1c-85.53,33.46-139.63,76.09-172.14,122-111.48,157.59,31.05,354.21,31.05,354.21,6,9.35,16.76,9.63,16.76,9.63a503.57,503.57,0,0,0,51.52-14.35C539.86,396.57,334.19,0,334.19,0Z"/><path class="cls-2" d="M221.23,272.17S128.5,132.87,287.32,77.92c0,0,25.24-8.08,26.86-15.91,0,0,85.84,183-86.19,214.41A9.09,9.09,0,0,1,221.23,272.17Z"/><path class="cls-3" d="M144,524.77s164-64.83,59.54-207.82c0,0-17-22.16-13.68-29.91,0,0-184.27,106.8-54.26,237.34A9.61,9.61,0,0,0,144,524.77Z"/><path class="cls-4" d="M146.69,519.47S212.77,356,37.2,333.07c0,0-27.77-3-31.1-10.71,0,0-49.67,207.12,134.52,202.93A9.6,9.6,0,0,0,146.69,519.47Z"/><path class="cls-5" d="M145.39,522.45s134.38-106.46-3-210.18c0,0-22-15.85-21.15-24,0,0-141.48,151.25,16.25,236.18A9.32,9.32,0,0,0,145.39,522.45Z"/><path class="cls-6" d="M140.92,525.88s169.76,24,150.17-147.09c0,0-3.72-26.89,2.8-31.86,0,0-207.09,1.77-159.89,174.59A9.33,9.33,0,0,0,140.92,525.88Z"/></g></g></svg>