<svg xmlns="http://www.w3.org/2000/svg" viewBox="0 0 1134.14 1088.27">
    <defs>
        <style type="text/css">
            @font-face {
                font-family: 'MyWebFont';
                src: url('WebFont.eot');
                src: url('WebFont.eot?#iefix') format('embedded-opentype'),
                    url('WebFont.woff') format('woff'),
                    url('WebFont.ttf') format('truetype'),
                    url('WebFont.svg#webfont') format('svg');
            }
        </style>
        <style>
            @font-face {
                font-family: MarckScript-Regular;
                src: url('./fonts/MarckScript-Regular.woff');
            }

            .cls-1 {
                fill: #f4e6e4;
            }

            .cls-2 {
                fill: #93bfbf;
            }

            .cls-3 {
                fill: #04738c;
            }

            .cls-4 {
                fill: none;
                stroke: #011826;
                stroke-miterlimit: 10;
                stroke-width: 40px;
            }

            .cls-5 {
                font-size: 330.69px;
                font-family: MarckScript-Regular, Marck Script;
            }

            .cls-5,
            .cls-6 {
                fill: #011826;
            }

            .cls-7 {
                fill: #dc9698;
            }

            .cls-8 {
                fill: #d98179;
            }

            .cls-9 {
                fill: #e0ad9e;
            }

            .cls-10 {
                fill: #f2c9c9;
            }
        </style>
    </defs>
    <title>Asset 1</title>
    <g id="Layer_2" data-name="Layer 2">
        <g id="Layer_1-2" data-name="Layer 1">
            <rect class="cls-1" x="151.31" y="306.32" width="702.21" height="702.21" />
            <path class="cls-2"
                d="M1007.49,0c-6.53,39.46-131,84.87-131,84.87C699.85,154,588.12,242,521,336.91c-230.22,325.43,64.12,731.48,64.12,731.48,12.38,19.3,34.61,19.88,34.61,19.88a1034.9,1034.9,0,0,0,106.39-29.63C1432.22,819,1007.49,0,1007.49,0Z" />
            <path class="cls-3"
                d="M774.22,562.07S582.71,274.38,910.7,160.92c0,0,52.12-16.69,55.47-32.87,0,0,177.27,378-178,442.8C788.18,570.85,779,570.24,774.22,562.07Z" />
            <rect class="cls-4" x="156.16" y="306.32" width="702.21" height="702.21" /><text class="cls-5"
                font-family="MyWebFont" transform="translate(229.49 685.8)">Ella</text>
            <path class="cls-6" d="M220.62,752.35h36.15v7.84h-28v19.38h24.52v7.83H228.79v25.87h-8.17Z" />
            <path class="cls-6" d="M268.23,748.05h7.92v65.22h-7.92Z" />
            <path class="cls-6"
                d="M286.59,795.49a18.22,18.22,0,0,1,2.49-9.44A18,18,0,0,1,296,779.4,20.45,20.45,0,0,1,306.06,777,19.74,19.74,0,0,1,316,779.4a17.61,17.61,0,0,1,6.7,6.65,19.77,19.77,0,0,1,0,18.88,17.88,17.88,0,0,1-6.7,6.7,19.74,19.74,0,0,1-10,2.48,20.91,20.91,0,0,1-10-2.31,17.65,17.65,0,0,1-6.87-6.49A18.62,18.62,0,0,1,286.59,795.49Zm7.92.09a12.38,12.38,0,0,0,1.52,6.1,11.68,11.68,0,0,0,4.05,4.34,10.43,10.43,0,0,0,5.72,1.61,10.63,10.63,0,0,0,5.82-1.61,11.4,11.4,0,0,0,4-4.34,13.33,13.33,0,0,0,0-12.21,11.73,11.73,0,0,0-4-4.38,10.41,10.41,0,0,0-5.82-1.65,10.27,10.27,0,0,0-5.77,1.69,12,12,0,0,0-4,4.42A12.58,12.58,0,0,0,294.51,795.58Z" />
            <path class="cls-6"
                d="M342.63,778.39l.75,10.11-.33-1.43a15.37,15.37,0,0,1,3.87-5.4,19,19,0,0,1,5.39-3.45A14.67,14.67,0,0,1,357.2,777l-.33,7.92a11.36,11.36,0,0,0-7,1.47,13.5,13.5,0,0,0-4.72,4.72,12.1,12.1,0,0,0-1.73,6.28v15.92h-7.83V778.39Z" />
            <path class="cls-6"
                d="M366.72,765.75a3.93,3.93,0,0,1,1.48-3.12,4.87,4.87,0,0,1,3.24-1.26,4.71,4.71,0,0,1,3.2,1.26,4.14,4.14,0,0,1,0,6.28,4.82,4.82,0,0,1-3.2,1.22,5,5,0,0,1-3.24-1.22A3.91,3.91,0,0,1,366.72,765.75Zm.51,12.64h7.92v34.88h-7.92Z" />
            <path class="cls-6"
                d="M429.49,814.11a16.42,16.42,0,0,1-14.95-8.89,20.09,20.09,0,0,1-2.32-9.81,19.15,19.15,0,0,1,2.44-9.94,16.45,16.45,0,0,1,6.58-6.32A19.45,19.45,0,0,1,430.5,777a18.21,18.21,0,0,1,7.88,1.76,14.23,14.23,0,0,1,5.86,4.89l-.42,2.78V748.05h7.83v65.22h-7.83v-8.68l.92,2.19a19.82,19.82,0,0,1-6.44,5.27A18.68,18.68,0,0,1,429.49,814.11Zm2.45-6.65a12.48,12.48,0,0,0,5.52-1.18,12.12,12.12,0,0,0,4-3.16,11.58,11.58,0,0,0,2.32-4.68v-6.65a10.8,10.8,0,0,0-2.4-4.47,11.91,11.91,0,0,0-4.13-3,13.24,13.24,0,0,0-5.35-1.06,11.71,11.71,0,0,0-5.82,1.52,11.48,11.48,0,0,0-4.29,4.21,12.87,12.87,0,0,0,0,12.43,12.25,12.25,0,0,0,4.29,4.38A11,11,0,0,0,431.94,807.46Z" />
            <path class="cls-6"
                d="M481.48,814.11a20.78,20.78,0,0,1-10.28-2.4,17.1,17.1,0,0,1-6.66-6.57,19.11,19.11,0,0,1-2.35-9.56,17.2,17.2,0,0,1,2.65-9.36,20,20,0,0,1,7-6.74,19.22,19.22,0,0,1,9.77-2.52,16.6,16.6,0,0,1,11.46,4,20.86,20.86,0,0,1,6.23,11.12l-28.81,10.11-1.86-4.63,23.51-8.68-1.6,1.18a11.33,11.33,0,0,0-3.37-4.8,9.1,9.1,0,0,0-6.15-2,10.59,10.59,0,0,0-9.61,5.69,12.93,12.93,0,0,0-1.43,6.2,13.18,13.18,0,0,0,1.48,6.31,10.71,10.71,0,0,0,4.12,4.34,11.68,11.68,0,0,0,6,1.56,12,12,0,0,0,4.42-.84,19.43,19.43,0,0,0,4.09-2.19l3.54,5.81a24.2,24.2,0,0,1-5.86,2.87A19.78,19.78,0,0,1,481.48,814.11Z" />
            <path class="cls-6"
                d="M537.43,810a17.48,17.48,0,0,1-5.65,3,20.66,20.66,0,0,1-6.57,1.09,21.32,21.32,0,0,1-10-2.27,16.76,16.76,0,0,1-6.78-6.41,18.64,18.64,0,0,1-2.44-9.68,17.53,17.53,0,0,1,2.61-9.65,18,18,0,0,1,6.78-6.32,18.88,18.88,0,0,1,9.06-2.24,23,23,0,0,1,7.46,1.14,17.23,17.23,0,0,1,5.77,3.25l-4,5.05a17.44,17.44,0,0,0-3.67-2.06,12.14,12.14,0,0,0-4.92-1,10.75,10.75,0,0,0-5.69,1.56,11.21,11.21,0,0,0-4.05,4.21,12.24,12.24,0,0,0-1.47,6,11.9,11.9,0,0,0,1.52,6,11.33,11.33,0,0,0,4.21,4.29,11.94,11.94,0,0,0,6.23,1.61A12.1,12.1,0,0,0,530,807a12.33,12.33,0,0,0,3.41-1.85Z" />
            <path class="cls-6"
                d="M544.42,795.49a18.22,18.22,0,0,1,2.49-9.44,17.9,17.9,0,0,1,6.91-6.65A20.41,20.41,0,0,1,563.88,777a19.78,19.78,0,0,1,10,2.44,17.58,17.58,0,0,1,6.69,6.65,19.69,19.69,0,0,1,0,18.88,17.85,17.85,0,0,1-6.69,6.7,19.76,19.76,0,0,1-10,2.48,20.91,20.91,0,0,1-10-2.31,17.51,17.51,0,0,1-6.87-6.49A18.52,18.52,0,0,1,544.42,795.49Zm7.92.09a12.38,12.38,0,0,0,1.52,6.1,11.73,11.73,0,0,0,4,4.34,10.49,10.49,0,0,0,5.73,1.61,10.65,10.65,0,0,0,5.82-1.61,11.47,11.47,0,0,0,4-4.34,13.41,13.41,0,0,0,0-12.21,11.82,11.82,0,0,0-4-4.38,10.43,10.43,0,0,0-5.82-1.65,10.24,10.24,0,0,0-5.77,1.69,12,12,0,0,0-4,4.42A12.46,12.46,0,0,0,552.34,795.58Z" />
            <path class="cls-6"
                d="M600.45,778.39l.76,10.11-.34-1.43a15.4,15.4,0,0,1,3.88-5.4,18.82,18.82,0,0,1,5.39-3.45A14.67,14.67,0,0,1,615,777l-.34,7.92a11.33,11.33,0,0,0-7,1.47,13.5,13.5,0,0,0-4.72,4.72,12.1,12.1,0,0,0-1.73,6.28v15.92h-7.84V778.39Z" />
            <path class="cls-6"
                d="M638.37,814.11a18.84,18.84,0,0,1-8.89-2.1,15.67,15.67,0,0,1-6.36-6.2,19.58,19.58,0,0,1-2.36-10,19.82,19.82,0,0,1,2.44-10.11,17,17,0,0,1,6.57-6.49,18.34,18.34,0,0,1,9-2.27,14.82,14.82,0,0,1,8.3,2.23,15.27,15.27,0,0,1,5.1,5.26l-.51,1.27.76-7.33h7.24v34.88h-7.83v-9.1l.93,2a11.29,11.29,0,0,1-1.6,2.15,20.88,20.88,0,0,1-3,2.66,16.73,16.73,0,0,1-4.25,2.23A16.3,16.3,0,0,1,638.37,814.11Zm2.1-6.48a12.45,12.45,0,0,0,5.31-1.1,10.42,10.42,0,0,0,3.92-3.12,11.67,11.67,0,0,0,2.15-4.72v-6.82a10.69,10.69,0,0,0-2.36-4.42,11.58,11.58,0,0,0-4-3,12.3,12.3,0,0,0-5.13-1.06,11.3,11.3,0,0,0-10,5.73,12.42,12.42,0,0,0-1.56,6.32,12.16,12.16,0,0,0,1.6,6.15,11.82,11.82,0,0,0,4.3,4.38A11.16,11.16,0,0,0,640.47,807.63Z" />
            <path class="cls-6" d="M676.54,763.05h8v15.51h9.52v6.15h-9.52v28.56h-8V784.71h-6.32v-6.15h6.32Z" />
            <path class="cls-6"
                d="M702.91,765.75a4,4,0,0,1,1.47-3.12,4.89,4.89,0,0,1,3.25-1.26,4.73,4.73,0,0,1,3.2,1.26,4.16,4.16,0,0,1,0,6.28,4.84,4.84,0,0,1-3.2,1.22,5,5,0,0,1-3.25-1.22A3.93,3.93,0,0,1,702.91,765.75Zm.5,12.64h7.92v34.88h-7.92Z" />
            <path class="cls-6" d="M739.06,814.28l-19.38-35.89H729l13.06,27.72-4.8-.25,12-27.47h8.77l-18.62,35.89Z" />
            <path class="cls-6"
                d="M781.86,814.11a20.75,20.75,0,0,1-10.28-2.4,17,17,0,0,1-6.66-6.57,19.11,19.11,0,0,1-2.36-9.56,17.21,17.21,0,0,1,2.66-9.36,20.09,20.09,0,0,1,7-6.74A19.26,19.26,0,0,1,782,777a16.57,16.57,0,0,1,11.45,4,20.81,20.81,0,0,1,6.24,11.12L770.9,802.23l-1.85-4.63,23.51-8.68L791,790.1a11.41,11.41,0,0,0-3.37-4.8,9.14,9.14,0,0,0-6.15-2,10.59,10.59,0,0,0-9.61,5.69,12.81,12.81,0,0,0-1.43,6.2,13.29,13.29,0,0,0,1.47,6.31,10.67,10.67,0,0,0,4.13,4.34,11.68,11.68,0,0,0,6,1.56,12,12,0,0,0,4.42-.84,19.94,19.94,0,0,0,4.09-2.19l3.53,5.81a24.13,24.13,0,0,1-5.85,2.87A19.83,19.83,0,0,1,781.86,814.11Z" />
            <path class="cls-7"
                d="M144,1049.77s164-64.83,59.54-207.82c0,0-17-22.16-13.68-29.91,0,0-184.27,106.8-54.26,237.34A9.61,9.61,0,0,0,144,1049.77Z" />
            <path class="cls-8"
                d="M146.69,1044.47S212.77,881,37.2,858.07c0,0-27.77-3-31.1-10.71,0,0-49.67,207.12,134.52,202.93A9.6,9.6,0,0,0,146.69,1044.47Z" />
            <path class="cls-9"
                d="M145.39,1047.45s134.38-106.46-3-210.18c0,0-22-15.85-21.15-24,0,0-141.48,151.25,16.25,236.18A9.32,9.32,0,0,0,145.39,1047.45Z" />
            <path class="cls-10"
                d="M140.92,1050.88s169.76,24,150.17-147.09c0,0-3.72-26.89,2.8-31.86,0,0-207.09,1.77-159.89,174.59A9.33,9.33,0,0,0,140.92,1050.88Z" />
        </g>
    </g>
</svg>