<svg xmlns="http://www.w3.org/2000/svg" viewBox="0 0 275.71 192.82"><defs><style>.cls-1{fill:#011826;}.cls-2{fill:#80aaa9;}.cls-3{fill:#93bfbf;}</style></defs><title>navToggle</title><g id="Layer_2" data-name="Layer 2"><g id="Layer_1-2" data-name="Layer 1"><rect class="cls-1" x="38.78" y="64.14" width="236.94" height="25.74"/><rect class="cls-1" x="38.78" y="167.09" width="236.94" height="25.74"/><rect class="cls-1" x="38.78" y="115.62" width="236.94" height="25.74"/><path class="cls-2" d="M93.33,161.65S-27,159.39,5.6,43c0,0,5.56-18.23,1.6-22.4,0,0,143.34,24.26,91.41,138.78A6.54,6.54,0,0,1,93.33,161.65Z"/><path class="cls-3" d="M91.37,161.19S-21.88,120.49,46.28,20.7C46.28,20.7,57.4,5.22,55,0,55,0,183,68.9,97.1,160.75A6.56,6.56,0,0,1,91.37,161.19Z"/></g></g></svg>