<svg xmlns="http://www.w3.org/2000/svg" viewBox="0 0 206.99 177"><defs><style>.cls-1{fill:#f2c9c9;}.cls-2{fill:#04738c;}.cls-3{fill:#dc9698;}.cls-4{fill:none;}.cls-4,.cls-5,.cls-6{stroke:#011826;stroke-miterlimit:10;stroke-width:12px;}.cls-5{fill:#011826;}</style></defs><title>Asset 2</title><g id="Layer_2" data-name="Layer 2"><g id="Layer_1-2" data-name="Layer 1"><path class="cls-1" d="M23.05,90.17S148,55.51,166.93,69.47L144.26,145.9H41.2Z"/><path class="cls-2" d="M109.2,111.35s-33.36-27.16,1.46-52.72c0,0,5.58-3.9,5.39-5.94,0,0,35,38.41-4.87,59.19A2.36,2.36,0,0,1,109.2,111.35Z"/><path class="cls-2" d="M115.88,101.71S102.14,61,145.23,57.9c0,0,6.8-.32,7.72-2.16,0,0,9.11,51.15-35.68,47.48A2.34,2.34,0,0,1,115.88,101.71Z"/><path class="cls-3" d="M20,80.75s21.9-29,70.92-17.07,66.39,42.22,66.39,42.22l-13,40H41.2Z"/><path class="cls-1" d="M26.56,99.77s60.26,6.13,84.43,44.6L41.2,145.9"/><polygon class="cls-4" points="117.03 44.79 68.44 44.79 8.27 44.79 41.2 145.9 68.44 145.9 117.03 145.9 144.26 145.9 177.2 44.79 117.03 44.79"/><polyline class="cls-4" points="206.99 6 190.69 6 166.93 76.32"/><circle class="cls-5" cx="55.3" cy="164.45" r="6.55"/><circle class="cls-6" cx="130.17" cy="164.45" r="6.55"/></g></g></svg>